<?xml version="1.0" encoding="UTF-8" standalone="no"?>
<!-- Created with Inkscape (http://www.inkscape.org/) -->

<svg
   width="297mm"
   height="210mm"
   viewBox="0 0 297 210"
   version="1.1"
   id="svg12"
   inkscape:version="1.1 (c68e22c387, 2021-05-23)"
   sodipodi:docname="LOGO_SVG.svg"
   xmlns:inkscape="http://www.inkscape.org/namespaces/inkscape"
   xmlns:sodipodi="http://sodipodi.sourceforge.net/DTD/sodipodi-0.dtd"
   xmlns="http://www.w3.org/2000/svg"
   xmlns:svg="http://www.w3.org/2000/svg">
  <sodipodi:namedview
     id="namedview14"
     pagecolor="#505050"
     bordercolor="#eeeeee"
     borderopacity="1"
     inkscape:pageshadow="0"
     inkscape:pageopacity="0"
     inkscape:pagecheckerboard="0"
     inkscape:document-units="mm"
     showgrid="false"
     inkscape:zoom="0.36440298"
     inkscape:cx="382.81795"
     inkscape:cy="352.63158"
     inkscape:window-width="1920"
     inkscape:window-height="1017"
     inkscape:window-x="-8"
     inkscape:window-y="-8"
     inkscape:window-maximized="1"
     inkscape:current-layer="layer1" />
  <defs
     id="defs9" />
  <g
     inkscape:label="Layer 1"
     inkscape:groupmode="layer"
     id="layer1">
    <a
       id="a663"
       transform="matrix(2.8540355,0,0,2.6812777,-149.68054,-610.20483)"
       style="fill:#97ceb9;fill-opacity:1">
      <path
         style="fill:#97ceb9;stroke-width:0.211126;fill-opacity:1"
         d="m 149.20693,305.26043 c -1.66457,-0.24716 -4.53405,-0.40475 -9.51637,-0.52265 -3.50034,-0.0829 -8.09806,-0.5388 -8.58344,-0.85123 -0.0754,-0.0485 -1.10737,-0.25029 -2.29342,-0.44846 -2.29897,-0.38411 -5.33839,-0.32919 -7.74217,0.13992 -1.43391,0.27982 -6.15723,0.1689 -10.02964,-0.23553 -2.19459,-0.2292 -3.12586,-0.21805 -6.20634,0.0743 -4.51839,0.42881 -12.804942,0.5221 -22.185562,0.24977 -3.951841,-0.11472 -6.208741,-0.0647 -9.930144,0.2198 -2.841068,0.21725 -5.508817,0.31061 -6.505555,0.22769 -2.762355,-0.22984 -7.022161,-1.9203 -8.850338,-3.51217 -0.549274,-0.47827 -0.744309,-0.52006 -1.965342,-0.42096 -1.505158,0.12211 -1.855768,0.19078 -2.234785,0.43737 -0.163407,0.10632 -0.268116,0.0446 -0.284457,-0.16765 -0.01421,-0.18475 -0.03868,-0.45711 -0.05435,-0.60525 -0.04327,-0.40899 1.730424,-2.0298 2.666188,-2.43637 0.45513,-0.19776 1.153343,-0.54742 1.551584,-0.77706 0.39824,-0.22962 0.975507,-0.51733 1.282816,-0.63936 0.464489,-0.18446 0.580294,-0.39159 0.686514,-1.22794 0.262867,-2.06978 1.154842,-5.35576 1.853642,-6.8287 0.916257,-1.93131 2.703267,-4.62483 3.559437,-5.36506 0.36238,-0.31331 1.386426,-0.96524 2.275658,-1.44869 2.608133,-1.41802 4.908645,-3.07395 5.774918,-4.15684 1.294896,-1.61868 3.07231,-2.39295 6.435757,-2.80348 1.502889,-0.18345 3.225148,-0.33547 3.827243,-0.33785 2.52779,-0.0101 6.992775,-1.7319 9.369836,-3.6135 l 1.03439,-0.81879 -0.01334,-2.36026 c -0.03833,-6.78869 -0.04865,-6.92078 -0.538833,-6.90208 -0.344003,0.013 -0.493436,-0.15889 -0.640319,-0.73702 -0.106604,-0.41959 -0.159922,-3.9761 -0.120199,-8.01766 l 0.07141,-7.26354 -1.448145,-0.0621 c -1.322685,-0.0568 -1.453869,-0.10414 -1.514207,-0.54658 -0.03633,-0.26643 0.126585,-0.76618 0.362036,-1.11057 0.235446,-0.34438 0.428091,-0.69229 0.428091,-0.77313 0,-0.0808 0.268097,-0.55067 0.595774,-1.04404 2.206982,-3.32313 3.910515,-6.15346 3.788585,-6.29455 -0.07885,-0.0913 -0.03494,-0.10125 0.09756,-0.0223 0.132516,0.0789 0.272152,0.0608 0.310316,-0.0404 0.07789,-0.20652 4.170421,-2.78139 7.599431,-4.78131 l 2.25822,-1.31708 14.40042,-0.0818 14.40041,-0.0818 3.29071,1.9574 c 4.02148,2.39205 3.97941,2.35306 7.86052,7.28697 1.072,1.36279 2.07648,2.58869 2.23217,2.7242 0.4868,0.42374 0.55848,1.64163 0.12858,2.18335 l -0.38149,0.48064 -0.87924,-0.87887 c -1.0179,-1.01749 -0.9898,-1.10018 -0.68548,2.01689 0.10657,1.09149 0.2507,3.00259 0.32032,4.24688 0.0697,1.24431 0.21308,3.42585 0.31876,4.8479 0.25241,3.39601 0.25717,3.2935 -0.16388,3.52821 -0.201,0.11196 -1.01559,0.35338 -1.81019,0.53634 -2.29562,0.52856 -5.51128,1.39168 -5.62458,1.50969 -0.31447,0.32751 -0.95794,4.58806 -0.96417,6.38391 -0.007,1.89798 0.0627,2.25064 0.95214,4.8479 2.40764,7.03048 2.56548,7.99342 2.25652,13.76615 -0.11154,2.08322 -0.13396,4.05572 -0.0499,4.38335 0.17175,0.6695 0.77777,1.05608 1.95665,1.24819 0.44711,0.0728 1.02741,0.36816 1.31783,0.67062 0.5275,0.54939 0.54552,0.79174 0.22135,2.97583 -0.045,0.30339 0.22592,0.61273 0.97196,1.10969 1.57245,1.04745 1.79125,1.31365 1.71894,2.09137 -0.0573,0.61647 0.043,0.75933 0.97047,1.38179 1.12663,0.75613 1.14873,0.76727 5.37884,2.7094 3.14497,1.44391 3.8289,1.96056 3.82419,2.88883 -0.006,1.06312 -0.45653,1.65032 -1.65786,2.1578 -1.22541,0.51764 -3.10005,0.60343 -5.47639,0.25061 z m 5.45141,-1.71945 c 0.35832,-0.13007 0.6515,-0.31687 0.6515,-0.41507 0,-0.23268 -3.18191,-1.80767 -6.10291,-3.02082 -1.38461,-0.57507 -3.5347,-1.98605 -3.67088,-2.40897 -0.0487,-0.1511 -0.0226,-0.57999 0.0579,-0.95309 0.0805,-0.3731 0.0885,-0.77271 0.0177,-0.88802 -0.0708,-0.11529 -0.79748,-0.659 -1.61496,-1.20823 -1.60426,-1.07782 -1.82418,-1.44153 -1.62272,-2.68347 0.12403,-0.76486 0.0918,-0.82691 -0.61094,-1.17595 -0.40807,-0.20266 -0.87014,-0.36848 -1.02684,-0.36848 -0.38787,0 -1.35608,-1.23149 -1.35608,-1.72484 0,-0.21945 -0.1412,-0.5461 -0.31389,-0.72591 -0.25327,-0.26377 -0.27421,-0.50595 -0.10842,-1.25429 0.27423,-1.23822 0.27085,-6.70434 -0.006,-8.64252 -0.26437,-1.85532 -2.8804,-10.26254 -3.17608,-10.20712 -0.31729,0.0595 -0.49732,-1.13453 -0.76568,-5.07833 -0.19848,-2.91672 -0.30396,-3.60898 -0.54989,-3.60898 -0.22649,0 -0.27317,0.16219 -0.1825,0.63432 0.067,0.34889 0.18478,2.23957 0.26172,4.20151 0.1202,3.06556 0.0971,3.56718 -0.16511,3.56718 -0.23471,0 -0.36071,-0.53111 -0.54655,-2.30374 -0.13979,-1.33357 -0.35027,-2.38174 -0.49976,-2.48899 -0.21689,-0.15562 -6.35265,-0.0145 -6.52051,0.15019 -0.0308,0.0301 0.046,1.21813 0.17055,2.63994 0.1246,1.42181 0.19631,2.91459 0.1594,3.3173 -0.0695,0.75831 -0.40987,0.92588 -0.51456,0.25333 -0.10359,-0.66539 -0.897,-7.91169 -0.89714,-8.19349 -8e-5,-0.14813 -0.19628,-0.26932 -0.43601,-0.26932 -0.29604,0 -0.39891,0.10038 -0.32065,0.31281 0.13538,0.36738 0.44579,5.65906 0.44604,7.60349 1.7e-4,1.33841 -0.29046,1.79782 -0.54644,0.86377 -0.11708,-0.42741 -0.57457,-4.43957 -0.64896,-5.69195 -0.0406,-0.68305 -1.40402,-0.85256 -2.97806,-0.37027 -1.40327,0.42999 -3.62152,0.43219 -6.32976,0.006 -2.13965,-0.33647 -1.9254,-0.65135 -2.10925,3.09974 -0.13581,2.76966 -0.3093,3.68958 -0.72311,3.83323 -0.23252,0.0807 -0.25584,-0.72807 -0.1378,-4.77998 0.12247,-4.20306 0.10033,-4.87716 -0.16037,-4.87716 -0.45172,0 -0.50003,0.35262 -0.73797,5.38654 -0.23717,5.01763 -0.35147,6.03295 -0.67915,6.03295 -0.14251,0 -0.17806,-1.33496 -0.10724,-4.02654 l 0.10595,-4.02653 -0.81713,2.3567 c -0.44942,1.29618 -0.82136,2.57486 -0.82654,2.8415 -0.005,0.26663 -0.0813,0.48479 -0.16907,0.48479 -0.14927,0 -1.74846,3.99412 -1.75225,4.37638 -0.001,0.0962 3.07041,1.55056 6.82525,3.23194 l 6.82696,3.05704 0.46473,1.93916 c 0.2556,1.06654 0.50552,2.23003 0.55539,2.58555 0.0498,0.3555 0.23639,1.22426 0.4145,1.93056 0.17812,0.7063 0.32386,1.44684 0.32386,1.64565 0,0.41913 1.22922,2.37222 2.09506,3.32882 0.32689,0.36117 0.59435,0.71359 0.59435,0.78317 0,0.34289 -7.23844,0.60555 -8.27513,0.30028 -0.59005,-0.17376 -1.72962,-2.25647 -1.53045,-2.79707 0.0661,-0.17929 -0.0768,-1.22678 -0.3173,-2.32777 -0.24058,-1.10098 -0.48417,-2.29267 -0.54132,-2.64818 -0.31605,-1.96639 -0.75373,-4.15067 -0.91099,-4.54646 -0.14875,-0.37431 -2.48084,-1.98697 -5.93555,-4.10443 -0.70996,-0.43515 -4.76672,-3.02418 -5.76304,-3.67797 -0.79048,-0.51873 -0.76674,-1.07795 0.13198,-3.10865 0.60309,-1.36272 0.69946,-1.47856 0.94226,-1.13273 0.14875,0.21186 0.27046,0.57313 0.27046,0.80279 0,0.38997 0.10592,0.40773 1.6033,0.2689 2.80763,-0.26031 2.97282,-0.32937 3.26659,-1.36558 0.30601,-1.07939 0.22156,-1.10866 -1.69665,-0.5883 -1.34919,0.36601 -3.79387,0.43542 -3.79387,0.10777 0,-0.11848 0.25601,-0.21695 0.56891,-0.21877 0.92439,-0.006 1.03545,-0.20113 0.88766,-1.56474 -0.0742,-0.68468 -0.091,-1.29066 -0.0372,-1.34664 0.0538,-0.0559 0.31495,-0.10182 0.58045,-0.10182 0.29385,0 0.48271,-0.12804 0.48271,-0.32729 0,-0.33233 -0.47843,-0.29312 -1.58203,0.12963 -0.24431,0.0936 -0.49807,0.11414 -0.56392,0.0455 -0.0658,-0.0685 -0.23833,-0.0282 -0.3833,0.0895 -0.14498,0.1179 -0.77562,0.3931 -1.40143,0.61171 -1.672485,0.58424 -1.817806,0.77099 -1.366684,1.75626 0.363742,0.79442 0.362546,0.81091 -0.0861,1.18929 -0.566883,0.47807 -1.906394,0.50126 -2.575614,0.0446 -0.485314,-0.33118 -0.529803,-0.3055 -1.90634,1.10042 -3.3714,3.44337 -6.979003,5.03228 -12.477405,5.49552 -5.863056,0.49396 -7.168631,0.91183 -8.874412,2.84044 -1.14587,1.29557 -3.001993,2.59843 -5.71507,4.01158 -2.291667,1.19364 -3.173064,1.96453 -4.403196,3.85114 -1.881547,2.88567 -2.874462,5.48831 -3.363737,8.81708 l -0.255584,1.73886 -1.675596,0.8721 c -0.921575,0.47966 -1.971423,0.98754 -2.332991,1.1286 -0.361568,0.14108 -0.811068,0.43334 -0.998887,0.64949 -0.325861,0.37502 -0.305243,0.38804 0.450519,0.28458 0.687756,-0.0942 0.996247,0.0307 2.343595,0.9485 0.94651,0.64477 2.347765,1.33512 3.593216,1.77026 1.833675,0.64065 2.297258,0.71599 4.551316,0.73955 1.380326,0.0145 3.766468,-0.0707 5.302537,-0.18921 4.591686,-0.35424 12.616416,-0.26577 14.688339,0.16194 0.967154,0.19965 2.642866,0.36944 3.723803,0.3773 5.105533,0.0372 12.570961,-0.23311 14.998661,-0.54303 2.97223,-0.37942 3.49434,-0.41118 12.41268,-0.75511 4.59775,-0.1773 6.58167,-0.17629 7.65449,0.004 2.30534,0.38731 3.56875,0.61016 5.99946,1.05821 3.13668,0.5782 4.27432,0.65735 11.37828,0.79157 3.4135,0.0645 6.62527,0.19599 7.1373,0.29224 1.40763,0.26457 4.818,0.25987 5.55483,-0.007 z m -94.512384,-7.19689 c 0,-0.0592 0.04655,-0.10776 0.103439,-0.10776 0.05689,0 0.103439,0.0485 0.103439,0.10776 0,0.0592 -0.04655,0.10777 -0.103439,0.10777 -0.05689,0 -0.103439,-0.0485 -0.103439,-0.10777 z m 74.682964,-28.65645 c 0,-0.0592 0.0465,-0.10777 0.10345,-0.10777 0.0569,0 0.10345,0.0485 0.10345,0.10777 0,0.0592 -0.0465,0.10776 -0.10345,0.10776 -0.0569,0 -0.10345,-0.0485 -0.10345,-0.10776 z m -15.57325,24.00579 c 0.27394,-0.10849 1.19263,-0.19724 2.04152,-0.19724 h 1.54343 l -0.302,-0.60821 c -0.54711,-1.10191 -0.71249,-1.14039 -2.51003,-0.58408 -0.90557,0.28026 -2.08868,0.57216 -2.62914,0.64867 -1.06522,0.15078 -1.0807,0.16574 -0.77932,0.75224 0.16635,0.32372 0.37938,0.37665 1.17041,0.2908 0.53187,-0.0578 1.19117,-0.19371 1.46513,-0.30218 z m -0.39244,-2.3739 c 0.83351,-0.34339 1.79401,-0.62434 2.13444,-0.62434 0.5456,0 0.60227,-0.0574 0.47831,-0.48479 -0.0773,-0.26664 -0.21908,-0.57254 -0.31496,-0.67978 -0.17341,-0.19399 -5.12845,-0.23082 -5.31215,-0.0395 -0.0529,0.0552 -0.0302,0.69346 0.0505,1.41845 l 0.14689,1.31816 0.65069,-0.14195 c 0.35787,-0.0781 1.33266,-0.4229 2.16619,-0.76629 z m 2.1017,-2.97652 c -0.0128,-0.49574 -0.53178,-0.61948 -2.94485,-0.70171 -2.33471,-0.0795 -2.6377,-0.0495 -2.6377,0.26105 0,0.19301 0.0389,0.39132 0.0866,0.4407 0.13566,0.14079 5.49959,0.14079 5.49604,-4e-5 z m -0.41377,-1.68774 c -0.006,-0.75855 -0.3061,-0.86127 -2.97565,-1.0198 -2.4569,-0.1459 -2.65786,-0.12963 -2.53426,0.2059 0.0738,0.2004 0.13425,0.51439 0.13425,0.69776 0,0.2769 0.2016,0.31197 1.18956,0.20694 0.65425,-0.0695 1.74811,-0.0463 2.4308,0.0517 0.68271,0.0979 1.35765,0.19082 1.49988,0.20636 0.14223,0.0155 0.25717,-0.14137 0.25542,-0.34881 z m -0.49026,-2.15462 c -0.0592,-0.20738 -0.1662,-0.63368 -0.23788,-0.94734 -0.12205,-0.53385 -0.25806,-0.59329 -2.13033,-0.93071 -3.80493,-0.68571 -3.40586,-0.68794 -3.27075,0.0183 0.0653,0.34149 0.17887,0.98447 0.25232,1.42887 l 0.13354,0.80799 h 2.68033 c 2.45575,0 2.67131,-0.0316 2.57277,-0.37707 z m -1.18287,-2.30247 c -0.37869,-0.3944 -3.56358,-1.56022 -4.04902,-1.48212 -2.13431,0.34334 -1.90861,0.60094 0.98819,1.12788 2.21246,0.40245 3.21896,0.51893 3.06083,0.35424 z m -4.82818,-2.17522 c -0.25744,-0.20281 -0.88419,-0.31634 -1.74628,-0.31634 -1.22677,0 -1.30949,0.0277 -0.94313,0.31634 0.25746,0.20281 0.88421,0.31634 1.74629,0.31634 1.22677,0 1.30948,-0.0277 0.94312,-0.31634 z m -2.18439,-0.96273 c -0.40972,-0.27577 -2.06878,-0.27577 -2.06878,0 0,0.11906 0.53232,0.21399 1.18955,0.21217 0.84435,-0.003 1.09949,-0.0639 0.87923,-0.21217 z m -2.193,-0.82684 c 0.0589,-0.0992 -0.61055,-0.50421 -1.48766,-0.89994 -0.8771,-0.39574 -2.07752,-0.94476 -2.66758,-1.22007 -1.76744,-0.8246 -1.5244,-0.57727 0.87139,0.88679 2.14484,1.31072 3.03868,1.64639 3.28385,1.23322 z m -3.0027,-3.96519 c 0.26879,-0.97658 0.53839,-1.91041 0.59911,-2.0752 0.0922,-0.2503 -0.193,-0.26945 -1.73235,-0.11631 -1.01351,0.10081 -2.17941,0.17254 -2.59088,0.15932 -0.66129,-0.0213 -0.7884,0.0639 -1.09498,0.73347 -0.19076,0.41662 -0.29195,0.81823 -0.22487,0.89243 0.11175,0.1237 4.20625,2.11187 4.44945,2.16061 0.0582,0.0116 0.32572,-0.7778 0.59452,-1.75437 z m -2.66567,1.23691 c 0,-0.0592 -0.0465,-0.10776 -0.10344,-0.10776 -0.0569,0 -0.10343,0.0485 -0.10343,0.10776 0,0.0593 0.0465,0.10777 0.10343,0.10777 0.0569,0 0.10344,-0.0485 0.10344,-0.10777 z m -9.589512,-7.94513 c -0.06447,-1.43689 -0.120937,-3.2185 -0.125478,-3.95914 -0.0075,-1.21582 -0.04991,-1.34665 -0.436914,-1.34665 -0.39346,0 -0.419405,0.0928 -0.316115,1.13118 0.06189,0.62214 0.16411,2.0038 0.227158,3.07034 0.175742,2.97289 0.325148,4.00219 0.55908,3.85161 0.13341,-0.0859 0.166915,-1.08356 0.09227,-2.74734 z m 4.383101,1.69672 c 0.05593,-0.0582 -0.0065,-0.35326 -0.138803,-0.6556 -0.419693,-0.95934 -0.283473,-1.31869 0.810061,-2.13692 1.422163,-1.06412 1.895573,-1.22812 2.700923,-0.93573 0.56752,0.20606 0.79087,0.17079 1.54004,-0.24315 0.48194,-0.26626 0.92277,-0.66937 0.97962,-0.89578 0.0568,-0.22639 0.27957,-0.41163 0.49494,-0.41163 0.59326,0 0.39872,-1.4211 -0.21813,-1.59346 -0.24477,-0.0684 -2.56295,-0.12572 -5.15151,-0.12732 l -4.706475,-0.003 v 3.59822 c 0,2.79861 0.05518,3.54076 0.248253,3.33966 0.34692,-0.36131 0.891714,-0.3221 1.21826,0.0876 0.211424,0.26532 0.491529,0.31547 1.198528,0.21454 0.507444,-0.0724 0.968377,-0.17936 1.024299,-0.2376 z m 8.454711,-0.46156 c 1.05479,-0.13195 1.08232,-0.15371 1.39163,-1.09915 l 0.31555,-0.96453 -0.87443,0.12283 c -0.48094,0.0675 -1.41531,0.18708 -2.07638,0.26561 -0.935,0.1111 -1.17621,0.21259 -1.08611,0.45714 0.0637,0.17291 0.11583,0.54884 0.11583,0.83541 0,0.58204 0.26048,0.62706 2.2139,0.38266 z m 2.2592,-3.67575 0.2321,-0.82993 -1.47337,0.15409 c -0.81036,0.0847 -1.72939,0.16008 -2.04229,0.16741 -0.62063,0.0145 -0.66936,0.14107 -0.37006,0.96092 0.19319,0.52921 0.24477,0.54235 1.81018,0.46109 l 1.61133,-0.0836 z m 14.55967,-1.57942 v -0.85485 h -5.48228 -5.48225 v 0.51352 c 0,0.92037 1.0831,1.10838 6.67181,1.15805 l 4.29272,0.0381 z m -14.126,-0.18857 c 0.56403,-0.76787 0.33647,-0.88174 -1.76207,-0.88174 h -2.02723 l 0.0821,0.73229 0.0821,0.73232 1.68655,-0.11993 c 1.19607,-0.085 1.75985,-0.21966 1.93858,-0.46298 z m 21.52568,0.30937 c 1.69938,10e-4 2.10283,-0.0562 2.01705,-0.28897 -0.059,-0.16006 -0.10715,-0.63303 -0.10715,-1.05107 0,-0.73531 -0.0219,-0.75666 -0.67234,-0.65552 -0.36979,0.0575 -1.55676,0.31222 -2.6377,0.56606 -1.08094,0.25384 -2.10498,0.44862 -2.27565,0.43288 -0.95714,-0.0883 -1.24127,0.0316 -1.24127,0.52371 0,0.76468 0.20478,0.85088 1.55158,0.65313 0.68269,-0.10024 2.19719,-0.18133 3.36555,-0.18022 z m 4.7685,-1.22236 c 0.2699,-1.63924 0.24025,-1.81955 -0.26587,-1.61726 -0.25449,0.10168 -0.31225,0.4434 -0.27768,1.64258 0.024,0.83279 0.0991,1.51416 0.16686,1.51416 0.0677,0 0.23728,-0.69277 0.37669,-1.53948 z m -4.41025,-1.25503 c 5.13378,-1.43601 5.29227,-1.47837 7.75793,-2.07393 1.3085,-0.31604 2.99998,-0.74749 3.75883,-0.95876 0.75887,-0.21126 1.44212,-0.31974 1.51832,-0.24106 0.0762,0.0787 0.0824,-0.1963 0.0142,-0.61106 -0.10714,-0.64836 -0.4435,-4.92441 -0.8475,-10.77311 -0.0614,-0.88878 -0.15968,-2.01825 -0.2184,-2.50993 l -0.10672,-0.89397 -1.18,0.29495 c -0.649,0.16223 -1.73858,0.41585 -2.42127,0.56362 -0.68271,0.14777 -1.30399,0.3626 -1.38067,0.47743 -0.14374,0.21529 -0.80756,-0.21571 -0.74609,-0.48444 0.10529,-0.4604 -0.34307,-2.00383 -0.63081,-2.17155 -0.61099,-0.35609 -0.0741,-0.52012 2.39785,-0.73254 1.33567,-0.11486 2.46455,-0.24012 2.5086,-0.27854 0.044,-0.0384 -0.23521,-0.37255 -0.62063,-0.74253 -0.3854,-0.37001 -1.36335,-1.34242 -2.17321,-2.16096 -1.64903,-1.6667 -1.58226,-1.64808 -4.39176,-1.22501 l -1.74814,0.26324 -1.96575,3.13029 c -1.08115,1.72165 -2.48068,3.95206 -3.11004,4.95646 l -1.14429,1.82616 0.22125,4.05696 c 0.12162,2.23132 0.27651,4.11453 0.34408,4.18489 0.0676,0.0704 0.86579,-0.17782 1.77384,-0.55155 2.4618,-1.01316 2.55888,-1.00275 2.7252,0.29231 0.0761,0.59253 0.2414,1.35026 0.36736,1.68386 0.12602,0.3336 0.22903,0.7311 0.22903,0.88333 0,0.15803 -1.06494,0.67809 -2.48253,1.21229 l -2.48253,0.93551 v 1.01841 c 0,1.29576 0.16496,1.74193 0.59341,1.60505 0.18564,-0.0592 1.73396,-0.49842 3.4407,-0.97582 z m 2.0702,-7.17061 c -0.16134,-0.71167 -0.41518,-4.75989 -0.41518,-6.62135 v -1.61186 l 0.82751,-0.15329 c 0.45514,-0.0843 1.67884,-0.15886 2.71936,-0.1657 l 1.89184,-0.013 0.17001,3.39353 c 0.0935,1.86644 0.17313,3.47246 0.17693,3.56892 0.007,0.1926 -4.50446,2.08696 -4.97081,2.08696 -0.15937,0 -0.33922,-0.21815 -0.39966,-0.48479 z m 2.85279,-2.18401 c -0.0657,-0.60598 -0.12957,-1.11541 -0.14207,-1.13205 -0.0128,-0.0167 -0.51147,0.02 -1.10883,0.0813 l -1.08612,0.11153 v 1.57242 1.57243 l 1.22818,-0.55192 1.22819,-0.55193 z m 1.26643,0.59885 c 0.2308,-0.0923 0.32723,-0.41435 0.32723,-1.0931 0,-0.80014 -0.061,-0.95026 -0.36203,-0.89073 -0.2728,0.054 -0.37758,0.32342 -0.4251,1.09312 -0.0665,1.07754 -0.0565,1.09707 0.4599,0.89071 z m -1.43274,-2.73813 c 0.003,-0.0219 -0.0254,-0.83973 -0.0637,-1.81737 l -0.0697,-1.77758 h -1.12208 -1.12207 v 0.93951 c 0,0.51673 0.0606,1.39991 0.13467,1.96261 l 0.13467,1.0231 1.05117,-0.14523 c 0.57813,-0.0798 1.05384,-0.16314 1.05715,-0.18504 z m 1.71661,-2.03522 c 0.06,-1.77385 0.0598,-1.77518 -0.46546,-1.77518 -0.58872,0 -0.64285,0.35233 -0.3904,2.54147 0.10246,0.88885 0.20496,1.12638 0.46368,1.07493 0.26683,-0.053 0.34392,-0.4149 0.39218,-1.84122 z m -32.30808,7.53194 -0.025,-6.39838 2.47705,-0.0652 c 1.36237,-0.0358 2.70359,-0.006 2.98048,0.0665 l 0.50344,0.13152 -0.14837,5.53556 c -0.0816,3.04455 -0.18749,5.85067 -0.23531,6.23581 l -0.0869,0.70024 h 5.1352 c 2.82436,0 6.38517,0.0624 7.91291,0.13876 l 2.77769,0.13876 -0.0724,-0.94837 -0.0724,-0.94838 -2.93117,0.25497 c -1.61213,0.14021 -3.74152,0.26218 -4.73198,0.27099 l -1.8008,0.0161 -0.10346,-0.70026 c -0.0569,-0.38514 -0.14077,-1.38987 -0.18658,-2.23276 l -0.0832,-1.5325 1.9874,-0.24207 c 1.09308,-0.13311 3.24419,-0.349 4.78026,-0.47968 1.53607,-0.13065 2.80125,-0.25322 2.81151,-0.27231 0.01,-0.0191 -0.0636,-1.683 -0.16399,-3.69756 -0.10047,-2.01457 -0.15383,-3.95373 -0.11864,-4.30925 l 0.064,-0.64639 -16.88245,-0.072 -16.88246,-0.072 -0.133056,6.6436 c -0.07318,3.65399 -0.192784,7.13994 -0.26579,7.74656 l -0.132744,1.10294 4.097404,0.0316 c 2.253569,0.0174 4.118916,0.0543 4.145206,0.0821 0.0263,0.0278 1.25408,0.021 2.72843,-0.0149 l 2.68062,-0.0655 -0.025,-6.39838 z m 13.23937,-1.68792 c -0.068,-0.45768 -0.16991,-1.99564 -0.22663,-3.41769 l -0.10317,-2.58555 1.29064,-0.0248 c 0.70985,-0.013 2.06101,-0.0516 3.00261,-0.0843 0.94158,-0.0327 1.74762,-0.0216 1.79118,0.0248 0.0918,0.0978 0.16971,2.88403 0.13865,4.96212 l -0.0214,1.43038 -0.67236,0.11921 c -0.36979,0.0655 -1.66317,0.18415 -2.87418,0.2636 l -2.20183,0.14441 z m 2.27738,0.13745 c 0.44344,0 0.49133,-0.0933 0.49133,-0.95686 0,-0.52629 -0.0998,-1.02104 -0.22156,-1.09949 -0.1219,-0.0784 -0.63389,-0.0782 -1.13783,4.3e-4 l -0.91626,0.14311 v 1.09103 1.09105 l 0.64649,-0.13471 c 0.35557,-0.074 0.86758,-0.1347 1.13783,-0.1347 z m 2.64663,-0.34625 c 0.22969,-0.0918 0.32724,-0.41296 0.32724,-1.07731 v -0.94652 h -0.82751 -0.82752 v 1.0773 c 0,0.99578 0.0379,1.07731 0.50028,1.07731 0.27515,0 0.64753,-0.0588 0.82751,-0.13079 z m -2.36217,-2.45409 c 0.0569,-0.0949 0.072,-0.76409 0.0333,-1.4871 l -0.0701,-1.31458 h -1.14653 -1.14652 l 0.12828,0.80799 c 0.0705,0.44438 0.12928,1.18257 0.13056,1.64042 l 0.003,0.83246 0.98268,-0.15333 c 0.54047,-0.0843 1.02922,-0.23096 1.08611,-0.32586 z m 2.53101,-0.27 c 0.22167,-0.17853 0.35706,-0.68711 0.40158,-1.50853 0.0648,-1.19753 0.0498,-1.23908 -0.45006,-1.23596 -1.31963,0.009 -1.44815,0.15367 -1.44815,1.63844 0,1.36376 0.006,1.37537 0.5811,1.37537 0.3196,0 0.73158,-0.12123 0.91553,-0.26932 z m -28.222699,3.08878 c -0.28375,-0.10805 -0.326938,-0.54919 -0.301364,-3.07793 0.01662,-1.64157 0.121689,-3.04404 0.236733,-3.15965 0.319838,-0.32141 5.6473,-0.80542 5.90548,-0.53653 0.11743,0.12225 0.26963,1.64388 0.33822,3.38129 l 0.12473,3.15891 -0.4948,0.0165 c -0.27214,0.009 -0.68099,0.0536 -0.90855,0.0988 -0.772,0.15362 -4.567367,0.24548 -4.900444,0.11862 z m 1.90071,-1.52667 c 0,-1.0437 -0.01862,-1.07732 -0.596505,-1.07732 -0.635737,0 -0.843188,0.38178 -0.848818,1.5621 -0.0026,0.53408 0.06859,0.59251 0.72125,0.59251 h 0.724073 z m 2.327379,0.93901 0.77579,-0.13354 v -1.17989 c 0,-0.9874 -0.0534,-1.15858 -0.32724,-1.04913 -0.17998,0.072 -0.64123,0.13079 -1.025011,0.13079 -0.645137,0 -0.707653,0.061 -0.828659,0.80799 -0.07198,0.4444 -0.175568,0.97767 -0.230192,1.18504 -0.110137,0.41815 0.270485,0.47372 1.635312,0.23877 z m -2.46023,-2.61316 c 0.05414,-0.0913 0.124725,-0.74571 0.156861,-1.45436 0.05628,-1.24135 0.03898,-1.29086 -0.472952,-1.35393 -0.619311,-0.0763 -0.785035,0.3332 -0.789503,1.95075 -0.0026,0.94223 0.03725,1.02345 0.502162,1.02345 0.277742,0 0.549286,-0.0746 0.603432,-0.16591 z m 3.20609,-0.3882 c 0.0404,-0.0362 0.008,-0.65354 -0.072,-1.37183 l -0.14553,-1.30599 h -0.8072 c -0.71037,0 -0.807202,0.061 -0.807202,0.50857 0,0.27972 -0.0578,0.94784 -0.128458,1.48472 l -0.128458,0.97611 1.007692,-0.11283 c 0.554236,-0.0621 1.040776,-0.14253 1.081196,-0.17872 z m 9.36265,11.08002 c 0.0975,-0.16032 0.18087,-1.30953 0.1852,-2.55382 0.008,-2.33536 0.29309,-6.79705 0.53461,-8.37014 l 0.13737,-0.89472 h -2.19866 -2.19866 v 3.5213 c 0,1.93671 -0.0616,4.71465 -0.13692,6.17321 l -0.13691,2.65192 1.81831,-0.1182 c 1.1986,-0.0779 1.87876,-0.21748 1.99565,-0.4096 z m -1.25623,-4.37489 c -0.38954,-0.48884 -0.17714,-1.08767 0.3858,-1.08767 0.56963,0 0.9713,0.5375 0.7832,1.04803 -0.16089,0.43667 -0.83442,0.45951 -1.169,0.0397 z m 0.71583,-0.33354 c 0.0703,-0.11848 -0.0228,-0.21547 -0.20688,-0.21547 -0.18411,0 -0.2772,0.0969 -0.20688,0.21547 0.0703,0.11848 0.16342,0.21545 0.20688,0.21545 0.0435,0 0.13656,-0.0969 0.20688,-0.21545 z m 12.55794,2.9115 c 1.55908,-0.17927 3.27143,-0.32597 3.80524,-0.32597 h 0.97054 l -0.13822,-1.54947 c -0.0761,-0.85221 -0.18293,-1.59601 -0.23753,-1.65286 -0.0904,-0.0942 -4.88348,0.23587 -7.81574,0.53816 l -1.20172,0.12384 0.12644,1.21628 c 0.22773,2.18982 0.2407,2.21717 0.98997,2.08949 0.36649,-0.0624 1.94196,-0.26022 3.50103,-0.43951 z m 9.65827,-2.60258 c 0.0822,-0.083 -0.39847,-2.03263 -0.50109,-2.03263 -0.0312,0 -0.7406,0.24173 -1.57641,0.53715 -0.83583,0.29544 -1.73187,0.53783 -1.9912,0.53866 -0.43805,0.001 -0.46463,0.0742 -0.3745,1.02495 0.0534,0.56289 0.1026,1.23605 0.10941,1.49591 0.0114,0.45475 0.092,0.43579 2.13297,-0.50522 1.16628,-0.53775 2.15662,-1.01421 2.20077,-1.05882 z m -4.33468,-12.09631 c 3.66603,-6.26342 5.10387,-8.45949 5.47898,-8.36834 0.21837,0.053 1.03904,-0.0442 1.82371,-0.21608 2.05839,-0.45095 2.94025,-0.40783 3.52206,0.17223 5.08099,5.06578 7.53625,7.44828 7.70424,7.47598 0.6502,0.10718 0.0988,-0.91002 -1.76859,-3.2624 -2.64905,-3.33709 -2.63842,-3.32341 -3.50219,-4.51006 -0.3957,-0.54362 -1.00083,-1.1152 -1.34471,-1.27018 -0.34387,-0.15499 -1.13726,-0.62074 -1.76307,-1.03502 -0.6258,-0.41428 -1.9708,-1.2805 -2.98888,-1.92494 l -1.85106,-1.17171 -12.32009,0.14742 c -6.77604,0.0811 -13.29758,0.17535 -14.4923,0.20948 l -2.17222,0.062 -1.7783,1.15841 c -0.97806,0.63712 -2.896322,1.83528 -4.262802,2.66258 -2.148904,1.30099 -2.621288,1.69158 -3.497091,2.89153 -0.556922,0.76305 -1.105679,1.49206 -1.219461,1.62003 -0.44738,0.50314 -3.46429,5.53231 -3.372499,5.62192 0.172717,0.16862 6.22925,0.32442 17.336763,0.44599 6.77008,0.0742 12.35006,0.17525 12.39996,0.22477 0.0499,0.0495 1.76611,0.0637 3.81383,0.0314 l 3.7231,-0.0585 z m 15.83154,-2.24484 c 0.12474,-0.12109 0.0475,-0.34468 -0.20688,-0.59962 -0.37499,-0.37577 -0.585,-0.39143 -2.77355,-0.20684 -1.3023,0.10979 -2.40262,0.23595 -2.44515,0.28025 -0.0426,0.0443 0.0325,0.46244 0.16683,0.92922 l 0.24414,0.84871 2.40789,-0.52933 c 1.32434,-0.29113 2.49736,-0.61621 2.60672,-0.72239 z m -3.61232,-8.91448 c 0,-0.0592 0.0465,-0.10777 0.10346,-0.10777 0.0569,0 0.10345,0.0485 0.10345,0.10777 0,0.0592 -0.0466,0.10776 -0.10345,0.10776 -0.0569,0 -0.10346,-0.0485 -0.10346,-0.10776 z"
         id="path308" />
    </a>
  </g>
</svg>
